<svg xmlns="http://www.w3.org/2000/svg" width="1220" height="358" viewBox="0 0 1220 358" font-family="Helvetica, Arial, sans-serif">
<defs><marker id="arrow" viewBox="0 0 10 10" refX="9" refY="5" markerWidth="7" markerHeight="7" orient="auto-start-reverse"><path d="M 0 0 L 10 5 L 0 10 z" fill="#33415c"/></marker></defs>
<rect width="1220" height="358" fill="#ffffff"/>
<text x="40" y="26" font-size="15" font-weight="bold" fill="#16202e">archtrace itself — System Context</text>
<line x1="226" y1="82" x2="634" y2="82" stroke="#33415c" stroke-width="1.2" stroke-dasharray="4 3" marker-end="url(#arrow)"/>
<line x1="546" y1="82" x2="634" y2="82" stroke="#33415c" stroke-width="1.2" stroke-dasharray="4 3" marker-end="url(#arrow)"/>
<line x1="866" y1="82" x2="954" y2="82" stroke="#33415c" stroke-width="1.2" stroke-dasharray="4 3" marker-end="url(#arrow)"/>
<line x1="226" y1="205" x2="634" y2="109" stroke="#33415c" stroke-width="1.2" stroke-dasharray="4 3" marker-end="url(#arrow)"/>
<rect x="0" y="30" width="220" height="104" rx="6" fill="#dbe4f0" stroke="#33415c" stroke-width="1.5"/>
<circle cx="206" cy="44" r="7.5" fill="#2f6b4f"/>
<text x="206" y="48" font-size="9" font-weight="bold" text-anchor="middle" fill="#ffffff">S</text>
<text x="110" y="58" font-size="13" font-weight="bold" text-anchor="middle" fill="#16202e">Solutions Architect</text>
<text x="110" y="74" font-size="10" text-anchor="middle" fill="#16202e">Runs the engagement.</text>
<rect x="0" y="180" width="220" height="104" rx="6" fill="#dbe4f0" stroke="#33415c" stroke-width="1.5"/>
<circle cx="206" cy="194" r="7.5" fill="#2f6b4f"/>
<text x="206" y="198" font-size="9" font-weight="bold" text-anchor="middle" fill="#ffffff">S</text>
<text x="110" y="208" font-size="13" font-weight="bold" text-anchor="middle" fill="#16202e">Peer reviewers</text>
<text x="110" y="224" font-size="10" text-anchor="middle" fill="#16202e">Independent review before</text>
<text x="110" y="236" font-size="10" text-anchor="middle" fill="#16202e">delivery.</text>
<rect x="320" y="30" width="220" height="104" rx="6" fill="#e4e4e4" stroke="#33415c" stroke-width="1.5"/>
<circle cx="526" cy="44" r="7.5" fill="#2f6b4f"/>
<text x="526" y="48" font-size="9" font-weight="bold" text-anchor="middle" fill="#ffffff">S</text>
<text x="430" y="58" font-size="13" font-weight="bold" text-anchor="middle" fill="#16202e">Stakeholder sources</text>
<text x="430" y="74" font-size="10" text-anchor="middle" fill="#16202e">Meetings, documents,</text>
<text x="430" y="86" font-size="10" text-anchor="middle" fill="#16202e">repositories.</text>
<rect x="640" y="30" width="220" height="104" rx="6" fill="#c7d7ee" stroke="#33415c" stroke-width="1.5"/>
<circle cx="846" cy="44" r="7.5" fill="#2f6b4f"/>
<text x="846" y="48" font-size="9" font-weight="bold" text-anchor="middle" fill="#ffffff">S</text>
<text x="750" y="58" font-size="13" font-weight="bold" text-anchor="middle" fill="#16202e">archtrace</text>
<text x="750" y="74" font-size="10" text-anchor="middle" fill="#16202e">Evidence-grounded</text>
<text x="750" y="86" font-size="10" text-anchor="middle" fill="#16202e">architecture pipeline.</text>
<rect x="960" y="30" width="220" height="104" rx="6" fill="#e4e4e4" stroke="#33415c" stroke-width="1.5"/>
<circle cx="1166" cy="44" r="7.5" fill="#2f6b4f"/>
<text x="1166" y="48" font-size="9" font-weight="bold" text-anchor="middle" fill="#ffffff">S</text>
<text x="1070" y="58" font-size="13" font-weight="bold" text-anchor="middle" fill="#16202e">Jira / Lucid /</text>
<text x="1070" y="74" font-size="13" font-weight="bold" text-anchor="middle" fill="#16202e">SharePoint</text>
<text x="1070" y="90" font-size="10" text-anchor="middle" fill="#16202e">Publication targets.</text>
<rect x="387" y="73" width="86" height="14" rx="3" fill="#ffffff" stroke="#ffffff" stroke-width="2"/>
<text x="430" y="84" font-size="10" text-anchor="middle" fill="#16202e">runs the gate</text>
<rect x="562" y="73" width="56" height="14" rx="3" fill="#ffffff" stroke="#ffffff" stroke-width="2"/>
<text x="590" y="84" font-size="10" text-anchor="middle" fill="#16202e">evidence</text>
<rect x="879" y="73" width="62" height="14" rx="3" fill="#ffffff" stroke="#ffffff" stroke-width="2"/>
<text x="910" y="84" font-size="10" text-anchor="middle" fill="#16202e">artifacts</text>
<rect x="360" y="148" width="140" height="14" rx="3" fill="#ffffff" stroke="#ffffff" stroke-width="2"/>
<text x="430" y="159" font-size="10" text-anchor="middle" fill="#16202e">reviews the model diff</text>
<text x="40" y="346" font-size="9" fill="#16202e">grounding:</text>
<circle cx="98" cy="343" r="6.5" fill="#2f6b4f"/>
<text x="98" y="346" font-size="8" font-weight="bold" text-anchor="middle" fill="#ffffff">S</text>
<text x="109" y="346" font-size="9" fill="#16202e">satisfies</text>
<circle cx="175" cy="343" r="6.5" fill="#3b5a7a"/>
<text x="175" y="346" font-size="8" font-weight="bold" text-anchor="middle" fill="#ffffff">D</text>
<text x="186" y="346" font-size="9" fill="#16202e">derived</text>
<circle cx="242" cy="343" r="6.5" fill="#6b5a2f"/>
<text x="242" y="346" font-size="8" font-weight="bold" text-anchor="middle" fill="#ffffff">T</text>
<text x="253" y="346" font-size="9" fill="#16202e">standard</text>
<circle cx="314" cy="343" r="6.5" fill="#5a5a5a"/>
<text x="314" y="346" font-size="8" font-weight="bold" text-anchor="middle" fill="#ffffff">E</text>
<text x="325" y="346" font-size="9" fill="#16202e">existing</text>
<circle cx="386" cy="343" r="6.5" fill="#9a4b2f"/>
<text x="386" y="346" font-size="8" font-weight="bold" text-anchor="middle" fill="#ffffff">A</text>
<text x="397" y="346" font-size="9" fill="#16202e">assumption</text>
</svg>
